<svg width="60" height="61" viewBox="0 0 60 61" fill="none" xmlns="http://www.w3.org/2000/svg">
<rect width="60" height="61" fill="#A2A2A2"/>
<circle cx="30" cy="30" r="30" fill="#45624E"/>
<rect x="9" y="48" width="41" height="13" fill="white"/>
<path d="M30 34.5C26.8375 34.5 24.1302 33.3984 21.8781 31.1953C19.626 28.9922 18.5 26.3438 18.5 23.25C18.5 20.1562 19.626 17.5078 21.8781 15.3047C24.1302 13.1016 26.8375 12 30 12C33.1625 12 35.8698 13.1016 38.1219 15.3047C40.374 17.5078 41.5 20.1562 41.5 23.25C41.5 26.3438 40.374 28.9922 38.1219 31.1953C35.8698 33.3984 33.1625 34.5 30 34.5ZM7 57V49.125C7 47.5313 7.41975 46.0669 8.25925 44.7319C9.09875 43.3969 10.2123 42.3769 11.6 41.6719C14.5708 40.2188 17.5896 39.1294 20.6562 38.4037C23.7229 37.6781 26.8375 37.3144 30 37.3125C33.1625 37.3106 36.2771 37.6744 39.3437 38.4037C42.4104 39.1331 45.4292 40.2225 48.4 41.6719C49.7896 42.375 50.9041 43.395 51.7436 44.7319C52.5831 46.0687 53.0019 47.5331 53 49.125V57H7Z" fill="white"/>
</svg>
