<svg width="34" height="53" viewBox="0 0 34 53" fill="none" xmlns="http://www.w3.org/2000/svg">
<path d="M24.5614 34.0714C24.5472 32.4744 24.1217 30.9082 23.3262 29.5244C22.5307 28.1405 21.3921 26.986 20.0206 26.1725L34 1.89286L30.7323 0L16.4205 24.8456C14.664 24.4526 12.8373 24.5071 11.1073 25.0041C9.37725 25.5011 7.79915 26.4247 6.51725 27.6906C-0.554597 34.5257 -0.00683039 50.5052 0.0196135 51.1829C0.0391387 51.6716 0.246729 52.1339 0.598863 52.4726C0.950996 52.8114 1.42033 53.0004 1.90846 53H30.2242C30.6206 53 31.007 52.875 31.3286 52.6427C31.6502 52.4104 31.8907 52.0826 32.0161 51.7057C32.1415 51.3288 32.1453 50.922 32.0271 50.5428C31.9089 50.1635 31.6747 49.8312 31.3575 49.5929C24.671 44.5654 24.5614 34.1736 24.5614 34.0714ZM14.9793 28.3872C16.4911 28.4038 17.9382 29.0039 19.0197 30.0627C20.1012 31.1214 20.7337 32.5572 20.7856 34.0714C20.7856 34.1434 20.7894 34.4651 20.8177 34.9592L9.67352 29.9923C10.4076 29.3857 11.2547 28.9314 12.1656 28.6559C13.0764 28.3803 14.0329 28.289 14.9793 28.3872ZM21.628 49.2143C20.1183 47.6737 19.1559 45.6784 18.8892 43.5357H15.1115C15.2468 45.5502 15.8747 47.5004 16.9399 49.2143H12.741C11.9639 46.7579 11.4913 44.2149 11.3338 41.6429H7.55612C7.6772 44.2073 8.09879 46.7485 8.8122 49.2143H3.77842C3.83698 45.739 4.32619 38.0616 7.18402 33.0247L21.4127 39.3658C22.0949 42.9235 23.5525 46.2864 25.6815 49.2143H21.628Z" fill="#3A5141"/>
</svg>
