<svg width="10" height="15" viewBox="0 0 10 15" fill="none" xmlns="http://www.w3.org/2000/svg">
<path d="M0.675781 0.657227C1.13765 0.248652 1.91086 0.251977 2.35352 0.643555L9.32422 6.80957C9.43079 6.90365 9.51245 7.01371 9.56738 7.13086C9.6221 7.24766 9.65034 7.37082 9.65039 7.49414C9.65039 7.61766 9.62224 7.74142 9.56738 7.8584C9.51248 7.97547 9.43069 8.08467 9.32422 8.17871V8.17969L2.35352 14.3457C2.13757 14.5367 1.83627 14.6504 1.51465 14.6504C1.19303 14.6504 0.891705 14.5367 0.675781 14.3457C0.461262 14.1559 0.350586 13.9077 0.350586 13.6602C0.350722 13.4128 0.461412 13.1653 0.675781 12.9756L6.56836 7.76367L6.86426 7.50098L6.56836 7.23926L0.675781 2.02637L0.600586 1.95312C0.530073 1.87725 0.473816 1.79382 0.432617 1.70605C0.377772 1.5891 0.34962 1.46529 0.349609 1.3418C0.349609 1.21828 0.377762 1.09452 0.432617 0.977539C0.473807 0.889758 0.530075 0.806354 0.600586 0.730469L0.675781 0.657227Z" fill="#45624E" stroke="white" stroke-width="0.7"/>
</svg>
