<svg width="38" height="38" viewBox="0 0 38 38" fill="none" xmlns="http://www.w3.org/2000/svg">
<path d="M17.8398 0C16.4384 1.30582 15.3143 2.88052 14.5347 4.63017C13.7551 6.37982 13.3359 8.26857 13.3021 10.1837C13.2683 12.0989 13.6206 14.0013 14.338 15.7773C15.0554 17.5534 16.1232 19.1668 17.4777 20.5212C18.8323 21.8757 20.4457 22.9434 22.2219 23.6608C23.998 24.3782 25.9005 24.7305 27.8157 24.6967C29.731 24.6629 31.6199 24.2437 33.3696 23.4641C35.1193 22.6845 36.6941 21.5605 38 20.1592C37.3952 30.1151 29.1295 38 19.0209 38C8.51482 38 0 29.4856 0 18.9819C0 8.87383 7.88529 0.608578 17.8398 0Z" fill="#FCD966"/>
</svg>
