<svg width="47" height="47" viewBox="0 0 47 47" fill="none" xmlns="http://www.w3.org/2000/svg">
<path d="M8.61902 5.78425C10.9328 3.84277 13.6063 2.37603 16.4869 1.46778C19.3675 0.559524 22.3988 0.227544 25.4077 0.490791C28.4166 0.754035 31.3442 1.60735 34.0234 3.00202C36.7025 4.39668 39.0807 6.30539 41.0222 8.61915C44.9431 13.292 46.8473 19.3311 46.3156 25.4078C45.784 31.4846 42.8601 37.1013 38.1873 41.0223C35.8735 42.9638 33.2 44.4305 30.3194 45.3388C27.4388 46.247 24.4075 46.579 21.3986 46.3157C15.3218 45.7841 9.70511 42.8602 5.78411 38.1874C1.86312 33.5145 -0.0409893 27.4755 0.490659 21.3987C1.02231 15.3219 3.94617 9.70524 8.61902 5.78425ZM10.0131 21.7584L14.951 27.6431L28.9355 18.7611L17.76 30.9907L22.6979 36.8755L33.9745 14.5328L10.0131 21.7584Z" fill="#3A5141"/>
</svg>
